<svg xmlns="http://www.w3.org/2000/svg" width="21" height="21" viewBox="0 0 21 21">
  <defs>
    <style>
      .cls-1 {
        fill: #fff;
        fill-rule: evenodd;
      }
    </style>
  </defs>
  <path id="Shape_12_copy_11" data-name="Shape 12 copy 11" class="cls-1" d="M10.5,0A10.506,10.506,0,1,1,3.075,3.077,10.464,10.464,0,0,1,10.5,0h0ZM6.587,14.934V13.309h1.2V7.8h-1.2V6.183H9.267V4.8h1.006V6.183H10.8V4.8h1.005V6.183a3.835,3.835,0,0,1,2.244.557A1.856,1.856,0,0,1,14.8,8.325a3.171,3.171,0,0,1-.065.693,1.7,1.7,0,0,1-.2.526,1.42,1.42,0,0,1-.377.409,2.635,2.635,0,0,1-.589.313,2.828,2.828,0,0,1,.638.269,1.91,1.91,0,0,1,.526.43,2.057,2.057,0,0,1,.359.619,2.353,2.353,0,0,1,.13.808,2.282,2.282,0,0,1-.8,1.935,4.352,4.352,0,0,1-2.61.607H11.806V16.2H10.8V14.934H10.274V16.2H9.267V14.934H6.587Zm3.687-7.1V9.715h1.132a0.77,0.77,0,0,0,.675-0.257,1.234,1.234,0,0,0,.176-0.709,0.926,0.926,0,0,0-.232-0.675,0.8,0.8,0,0,0-.6-0.239H10.274Zm0,3.294v2.179h1.368a1.007,1.007,0,0,0,1.015-1.077,1.176,1.176,0,0,0-.263-0.789,0.98,0.98,0,0,0-.79-0.313h-1.33ZM16.7,4.3a8.774,8.774,0,1,0,2.569,6.2A8.75,8.75,0,0,0,16.7,4.3h0Z"/>
</svg>
